<svg xmlns="http://www.w3.org/2000/svg" width="3195.636" height="2135.994" viewBox="0 0 3195.636 2135.994">
  <g opacity=".09">
    <path fill="#004d57" d="m769.684 2104.4 31.594-31.594 31.594 31.594-31.594 31.594zm-36.651-37.907 30.421-30.421 30.421 30.421-30.42 30.421zm-36.652-37.906 29.248-29.248 29.248 29.248-29.248 29.248zm-36.652-37.907 28.075-28.075 28.075 28.075-28.075 28.075zm-36.651-37.906 26.902-26.902 26.902 26.902-26.902 26.902zm-36.652-37.906 25.728-25.73 25.73 25.73-25.729 25.728zm-36.652-37.906 24.556-24.556 24.557 24.556-24.557 24.556zm-36.651-37.906 23.383-23.383 23.382 23.383-23.382 23.383zm-36.652-37.906 22.21-22.21 22.21 22.21-22.21 22.21zm-36.652-37.906 21.037-21.037 21.037 21.037-21.037 21.037z"/>
    <path fill="#cc3589" d="m403.168 1725.337 19.864-19.864 19.864 19.864-19.864 19.864z"/>
    <path fill="#004d57" d="m366.516 1687.431 18.691-18.691 18.69 18.691-18.69 18.691zm-36.652-37.906 17.518-17.518 17.518 17.518-17.518 17.518zm-36.651-37.907 16.345-16.345 16.345 16.345-16.345 16.345zm-36.652-37.906 15.172-15.172 15.171 15.172-15.171 15.172zm-36.651-37.906 13.999-13.999 13.998 13.999-13.998 13.999zm-36.652-37.906 12.826-12.826 12.825 12.826-12.825 12.826zm-36.652-37.907 11.652-11.652 11.653 11.652-11.653 11.652zm-36.652-37.906 10.48-10.48 10.48 10.48-10.48 10.48zm-36.651-37.906 9.307-9.307 9.307 9.307-9.307 9.307zm-36.652-37.906 8.134-8.134 8.134 8.134-8.134 8.134zM0 1308.369l6.96-6.96 6.962 6.96-6.961 6.96zM769.684 2104.4l31.594-31.594 31.594 31.594-31.594 31.594zm38.998-37.907 30.421-30.421 30.421 30.421-30.42 30.421zm38.998-37.906 29.248-29.248 29.248 29.248-29.248 29.248zm38.997-37.906 28.075-28.075 28.075 28.075-28.075 28.075zm38.998-37.907 26.902-26.902 26.902 26.902-26.902 26.902zm38.997-37.906 25.73-25.729 25.728 25.73-25.73 25.728zm38.998-37.906 24.556-24.556 24.555 24.556-24.555 24.556zm38.998-37.906 23.383-23.383 23.382 23.383-23.382 23.383zm38.998-37.906 22.206-22.206 22.206 22.206-22.206 22.206zm38.997-37.906 21.037-21.037 21.037 21.037-21.037 21.037zm38.998-37.907 19.864-19.864 19.864 19.864-19.864 19.864zm38.998-37.906 18.691-18.691 18.69 18.691-18.69 18.691z"/>
    <path fill="#f38331" d="m1237.656 1649.525 17.518-17.518 17.518 17.518-17.518 17.518z"/>
    <path fill="#004d57" d="m1276.655 1611.618 16.345-16.345 16.345 16.345-16.345 16.345zm38.997-37.906 15.172-15.172 15.171 15.172-15.171 15.172zm38.998-37.906 13.999-13.999 13.998 13.999-13.998 13.999zm38.997-37.906 12.826-12.826 12.825 12.826-12.825 12.826zm38.998-37.907 11.65-11.65 11.651 11.65-11.65 11.65zm38.998-37.906 10.478-10.478 10.479 10.478-10.479 10.478zm38.998-37.906 9.307-9.307 9.307 9.307-9.307 9.307zm38.997-37.906 8.134-8.134 8.134 8.134-8.134 8.134zm38.998-37.906 6.96-6.96 6.962 6.96-6.961 6.96zm-818.952 716.693 31.594-31.594 31.594 31.594-31.594 31.594zm-36.651-37.907 30.421-30.421 30.421 30.421-30.42 30.421zm-36.652-37.905 29.248-29.248 29.248 29.248-29.248 29.248zm-36.652-37.907 28.075-28.075 28.075 28.075-28.075 28.075zm-36.651-37.906 26.902-26.902 26.902 26.902-26.902 26.902zm-36.652-37.906 25.728-25.73 25.73 25.73-25.729 25.728zm-36.652-37.906 24.556-24.556 24.557 24.556-24.557 24.556zm-36.651-37.907 23.383-23.383 23.382 23.383-23.382 23.383zm-36.652-37.906 22.21-22.21 22.21 22.21-22.21 22.21zm-36.652-37.906 21.037-21.037 21.037 21.037-21.037 21.037zm-36.651-37.907 19.864-19.864 19.864 19.864-19.864 19.864zm-36.652-37.906 18.691-18.69 18.69 18.69-18.69 18.691zm-36.652-37.906 17.518-17.518 17.518 17.518-17.518 17.518zm-36.651-37.907 16.345-16.345 16.345 16.345-16.345 16.345zm-36.652-37.906 15.172-15.172 15.171 15.172-15.171 15.172zm-36.651-37.906 13.999-13.999 13.998 13.999-13.998 13.999zm-36.652-37.906 12.826-12.826 12.825 12.826-12.825 12.826zm-36.652-37.906 11.652-11.652 11.653 11.652-11.653 11.652zm-36.652-37.906 10.48-10.48 10.48 10.48-10.48 10.48zm-36.651-37.907 9.307-9.307 9.307 9.307-9.307 9.307z"/>
    <path fill="#f38331" d="m36.651 1266.937 8.134-8.134 8.134 8.134-8.134 8.134z"/>
    <path fill="#004d57" d="m0 1229.03 6.96-6.96 6.962 6.96-6.961 6.96zm769.684 796.032 31.594-31.594 31.594 31.594-31.594 31.594zm38.998-37.907 30.421-30.421 30.421 30.421-30.42 30.421zm38.998-37.905 29.248-29.248 29.248 29.248-29.248 29.248zm38.997-37.907 28.075-28.075 28.075 28.075-28.075 28.075zm38.998-37.906 26.902-26.902 26.902 26.902-26.902 26.902zm38.997-37.907 25.73-25.728 25.728 25.729-25.73 25.728zm38.998-37.905 24.556-24.556 24.555 24.556-24.555 24.556zm38.998-37.907 23.383-23.383 23.382 23.383-23.382 23.383zm38.998-37.906 22.21-22.21 22.209 22.21-22.21 22.21zm38.997-37.906 21.037-21.037 21.037 21.037-21.037 21.037zm38.998-37.907 19.864-19.864 19.864 19.864-19.864 19.864zm38.998-37.905 18.688-18.688 18.688 18.688-18.688 18.688zm38.997-37.907 17.518-17.518 17.518 17.518-17.518 17.518zm38.999-37.906 16.345-16.345 16.345 16.345-16.345 16.345zm38.997-37.907 15.172-15.172 15.171 15.172-15.171 15.172zm38.998-37.906 13.999-13.999 13.998 13.999-13.998 13.999zm38.997-37.906 12.826-12.826 12.825 12.826-12.825 12.826zm38.998-37.906 11.65-11.65 11.651 11.65-11.65 11.65zm38.998-37.906 10.478-10.478 10.479 10.478-10.479 10.478zm38.998-37.907 9.307-9.307 9.307 9.307-9.307 9.307zm38.997-37.906 8.134-8.134 8.134 8.134-8.134 8.134zm38.998-37.906 6.96-6.96 6.962 6.96-6.961 6.96zm-818.952 716.693 31.594-31.594 31.594 31.594-31.594 31.594zm-36.651-37.906 30.421-30.421 30.421 30.421-30.42 30.421zm-36.652-37.907 29.248-29.248 29.248 29.248-29.248 29.248zm-36.652-37.906 28.075-28.075 28.075 28.075-28.075 28.075zm-36.651-37.906 26.902-26.902 26.902 26.902-26.902 26.902zm-36.652-37.906 25.729-25.729 25.729 25.729-25.73 25.729zm-36.652-37.907 24.556-24.556 24.557 24.556-24.557 24.556zm-36.651-37.906 23.383-23.383 23.382 23.383-23.382 23.383zm-36.652-37.906 22.207-22.207 22.207 22.207-22.207 22.207zm-36.652-37.906 21.037-21.037 21.037 21.037-21.037 21.037zm-36.651-37.907 19.864-19.864 19.864 19.864-19.864 19.864zm-36.652-37.906 18.691-18.691 18.69 18.691-18.69 18.691zm-36.652-37.906 17.518-17.518 17.518 17.518-17.518 17.518zm-36.651-37.906 16.345-16.345 16.345 16.345-16.345 16.345zm-36.652-37.907 15.172-15.172 15.171 15.172-15.171 15.172zm-36.651-37.906 13.999-13.999 13.998 13.999-13.998 13.999zm-36.652-37.906 12.826-12.826 12.825 12.826-12.825 12.826zm-36.652-37.906 11.652-11.652 11.653 11.652-11.653 11.652zm-36.652-37.906 10.48-10.48 10.48 10.48-10.48 10.48zm-36.651-37.907 9.307-9.307 9.307 9.307-9.307 9.307zm-36.652-37.906 8.134-8.134 8.134 8.134-8.134 8.134zM0 1149.693l6.96-6.96 6.962 6.96-6.961 6.96z"/>
    <path fill="#004d57" d="m769.684 1945.724 31.594-31.594 31.594 31.594-31.594 31.594zm38.998-37.906 30.421-30.421 30.421 30.421-30.42 30.421zm38.998-37.907 29.248-29.248 29.248 29.248-29.248 29.248zm38.997-37.906 28.075-28.075 28.075 28.075-28.075 28.075zm38.998-37.906 26.902-26.902 26.902 26.902-26.902 26.902zm38.997-37.906 25.729-25.729 25.729 25.729-25.73 25.729zm38.998-37.907 24.556-24.556 24.555 24.556-24.555 24.556zm38.998-37.906 23.383-23.383 23.382 23.383-23.382 23.383zm38.998-37.906 22.21-22.21 22.209 22.21-22.21 22.21zm38.997-37.906 21.037-21.037 21.037 21.037-21.037 21.037zm38.998-37.907 19.864-19.864 19.864 19.864-19.864 19.864zm38.998-37.906 18.691-18.691 18.69 18.691-18.69 18.691zm38.997-37.906 17.518-17.518 17.518 17.518-17.518 17.518zm38.999-37.906 16.345-16.345 16.345 16.345-16.345 16.345zm38.997-37.907 15.172-15.172 15.171 15.172-15.171 15.172zm38.998-37.906 13.999-13.999 13.998 13.999-13.998 13.999zm38.997-37.906 12.826-12.826 12.825 12.826-12.825 12.826zm38.998-37.906 11.65-11.65 11.651 11.65-11.65 11.65zm38.998-37.906 10.478-10.478 10.479 10.478-10.479 10.478zm38.998-37.907 9.307-9.307 9.307 9.307-9.307 9.307zm38.997-37.906 8.134-8.134 8.134 8.134-8.134 8.134zm38.998-37.906 6.96-6.96 6.962 6.96-6.961 6.96zm-818.952 716.693 31.594-31.594 31.594 31.594-31.594 31.594zm-36.651-37.906 30.421-30.421 30.421 30.421-30.42 30.421zm-36.652-37.906 29.248-29.248 29.248 29.248-29.248 29.248zm-36.652-37.907 28.075-28.075 28.075 28.075-28.075 28.075zm-36.651-37.906 26.902-26.902 26.902 26.902-26.902 26.902zm-36.652-37.906 25.728-25.73 25.73 25.73-25.729 25.728zm-36.652-37.906 24.556-24.556 24.557 24.556-24.557 24.556zm-36.651-37.907 23.383-23.383 23.382 23.383-23.382 23.383zm-36.652-37.906 22.21-22.21 22.21 22.21-22.21 22.21zm-36.652-37.906 21.037-21.037 21.037 21.037-21.037 21.037zm-36.651-37.907 19.864-19.864 19.864 19.864-19.864 19.864zm-36.652-37.906 18.691-18.69 18.69 18.69-18.69 18.691zm-36.652-37.906 17.518-17.518 17.518 17.518-17.518 17.518zm-36.651-37.906 16.345-16.345 16.345 16.345-16.345 16.345zm-36.652-37.906 15.172-15.172 15.171 15.172-15.171 15.172zm-36.652-37.907 13.999-13.999 13.998 13.999-13.998 13.999zm-36.651-37.906 12.826-12.826 12.825 12.826-12.825 12.826zm-36.652-37.906 11.652-11.652 11.653 11.652-11.653 11.652zm-36.652-37.906 10.48-10.48 10.48 10.48-10.48 10.48zm-36.651-37.907 9.306-9.306 9.305 9.306-9.305 9.306zm-36.652-37.906 8.132-8.132 8.132 8.132-8.132 8.132zM0 1070.356l6.96-6.96 6.962 6.96-6.961 6.96z"/>
    <path fill="#004d57" d="m769.684 1866.386 31.594-31.594 31.594 31.594-31.594 31.594zm38.998-37.906 30.421-30.421 30.421 30.421-30.42 30.421zm38.998-37.906 29.248-29.248 29.248 29.248-29.248 29.248zm38.997-37.906 28.075-28.075 28.075 28.075-28.075 28.075zm38.998-37.907 26.902-26.902 26.902 26.902-26.902 26.902zm38.997-37.907 25.73-25.728 25.728 25.729-25.73 25.728zm38.998-37.905 24.556-24.556 24.555 24.556-24.555 24.556zm38.998-37.907 23.383-23.383 23.382 23.383-23.382 23.383zm38.998-37.905 22.206-22.206 22.206 22.206-22.206 22.206zm38.997-37.907 21.037-21.037 21.037 21.037-21.037 21.037zm38.998-37.907 19.864-19.864 19.864 19.864-19.864 19.864zm38.998-37.905 18.688-18.688 18.688 18.688-18.688 18.688zm38.997-37.907 17.518-17.518 17.518 17.518-17.518 17.518zm38.999-37.906L1293 1357.26l16.345 16.345L1293 1389.95zm38.997-37.906 15.172-15.172 15.171 15.172-15.171 15.172zm38.998-37.906 13.999-13.999 13.998 13.999-13.998 13.999zm38.997-37.907 12.826-12.826 12.825 12.826-12.825 12.826zm38.998-37.906 11.65-11.65 11.651 11.65-11.65 11.65zm38.998-37.906 10.478-10.478 10.479 10.478-10.479 10.478zm38.998-37.906 9.307-9.307 9.307 9.307-9.307 9.307zm38.998-37.907 8.133-8.133 8.133 8.133-8.133 8.133zm38.997-37.906 6.96-6.96 6.962 6.96-6.961 6.96zm-818.952 716.693 31.594-31.594 31.594 31.594-31.594 31.594zm-36.651-37.906 30.421-30.421 30.421 30.421-30.42 30.421zm-36.652-37.906 29.248-29.248 29.248 29.248-29.248 29.248zm-36.652-37.906 28.075-28.075 28.075 28.075-28.075 28.075zm-36.651-37.907 26.902-26.902 26.902 26.902-26.902 26.902zm-36.652-37.906 25.729-25.729 25.729 25.729-25.73 25.729zm-36.652-37.906 24.556-24.556 24.557 24.556-24.557 24.556zm-36.651-37.906 23.383-23.383 23.382 23.383-23.382 23.383zm-36.652-37.906 22.21-22.21 22.21 22.21-22.21 22.21zm-36.652-37.907 21.037-21.037 21.037 21.037-21.037 21.037zm-36.651-37.906 19.864-19.864 19.864 19.864-19.864 19.864zm-36.652-37.907 18.691-18.691 18.69 18.691-18.69 18.691zm-36.652-37.905 17.518-17.518 17.518 17.518-17.518 17.518zm-36.651-37.907 16.345-16.345 16.345 16.345-16.345 16.345zm-36.652-37.906 15.172-15.172 15.171 15.172-15.171 15.172zm-36.652-37.906 13.999-13.999 13.998 13.999-13.998 13.999zm-36.651-37.907 12.826-12.826 12.825 12.826-12.825 12.826zm-36.652-37.906 11.652-11.652 11.653 11.652-11.653 11.652zm-36.652-37.906 10.48-10.48 10.48 10.48-10.48 10.48zm-36.651-37.906 9.306-9.306 9.305 9.306-9.305 9.306zm-36.652-37.907 8.133-8.133 8.132 8.133-8.132 8.133zM0 991.018l6.96-6.96 6.962 6.96-6.961 6.96z"/>
    <path fill="#004d57" d="m769.684 1787.048 31.594-31.594 31.594 31.594-31.594 31.594zm38.998-37.906 30.421-30.421 30.421 30.421-30.42 30.421zm38.998-37.906 29.248-29.248 29.248 29.248-29.248 29.248zm38.997-37.906 28.075-28.075 28.075 28.075-28.075 28.075zm38.998-37.907 26.902-26.902 26.902 26.902-26.902 26.902zm38.997-37.906 25.729-25.729 25.729 25.729-25.73 25.729zm38.998-37.906 24.556-24.556 24.555 24.556-24.555 24.556zm38.998-37.906 23.383-23.383 23.382 23.383-23.382 23.383zm38.998-37.906 22.206-22.206 22.206 22.206-22.206 22.206zm38.997-37.907 21.037-21.037 21.037 21.037-21.037 21.037zm38.998-37.906 19.864-19.864 19.864 19.864-19.864 19.864zm38.998-37.907 18.691-18.691 18.69 18.691-18.69 18.691z"/>
    <path fill="#cc3589" d="m1237.656 1332.174 17.518-17.518 17.518 17.518-17.518 17.518z"/>
    <path fill="#004d57" d="m1276.655 1294.267 16.345-16.345 16.345 16.345-16.345 16.345zm38.997-37.906 15.172-15.172 15.171 15.172-15.171 15.172zm38.998-37.906 13.999-13.999 13.998 13.999-13.998 13.999zm38.997-37.907 12.826-12.826 12.825 12.826-12.825 12.826zm38.998-37.906 11.652-11.652 11.653 11.652-11.653 11.652zm38.998-37.906 10.48-10.48 10.48 10.48-10.48 10.48zm38.998-37.906 9.307-9.307 9.307 9.307-9.307 9.307zm38.997-37.907 8.134-8.134 8.134 8.134-8.134 8.134zm38.998-37.905 6.96-6.96 6.962 6.96-6.961 6.96zm-818.952 716.693 31.594-31.594 31.594 31.594-31.594 31.594zm-36.651-37.907 30.421-30.421 30.421 30.421-30.42 30.421zm-36.652-37.906 29.248-29.248 29.248 29.248-29.248 29.248zm-36.652-37.906 28.075-28.075 28.075 28.075-28.075 28.075zm-36.651-37.907 26.902-26.902 26.902 26.902-26.902 26.902zm-36.652-37.905 25.729-25.729 25.729 25.729-25.73 25.729zm-36.652-37.907 24.556-24.556 24.557 24.556-24.557 24.556zm-36.651-37.906 23.383-23.383 23.382 23.383-23.382 23.383zm-36.652-37.906 22.21-22.21 22.21 22.21-22.21 22.21zm-36.652-37.906 21.037-21.037 21.037 21.037-21.037 21.037zm-36.651-37.907 19.864-19.864 19.864 19.864-19.864 19.864zm-36.652-37.906 18.691-18.69 18.69 18.69-18.69 18.691zm-36.652-37.906 17.518-17.518 17.518 17.518-17.518 17.518zm-36.651-37.907 16.345-16.345 16.345 16.345-16.345 16.345zm-36.652-37.906 15.172-15.172 15.171 15.172-15.171 15.172zm-36.652-37.906 13.999-13.999 13.998 13.999-13.998 13.999zm-36.651-37.906 12.826-12.826 12.825 12.826-12.825 12.826zm-36.652-37.907 11.652-11.652 11.653 11.652-11.653 11.652zm-36.652-37.906 10.48-10.48 10.48 10.48-10.48 10.48zm-36.651-37.906 9.306-9.306 9.305 9.306-9.305 9.306zm-36.652-37.906 8.133-8.133 8.132 8.133-8.132 8.133zM0 911.68l6.96-6.96 6.962 6.96-6.961 6.96z"/>
    <path fill="#004d57" d="m769.684 1707.711 31.594-31.594 31.594 31.594-31.594 31.594zm38.998-37.907 30.421-30.421 30.421 30.421-30.42 30.421zm38.998-37.906 29.248-29.248 29.248 29.248-29.248 29.248zm38.997-37.906 28.075-28.075 28.075 28.075-28.075 28.075zm38.998-37.907 26.902-26.902 26.902 26.902-26.902 26.902zm38.997-37.905 25.729-25.729 25.729 25.729-25.73 25.729zm38.998-37.907 24.556-24.556 24.555 24.556-24.555 24.556zm38.998-37.906 23.383-23.383 23.382 23.383-23.382 23.383zm38.998-37.906 22.206-22.206 22.206 22.206-22.206 22.206zm38.997-37.907 21.037-21.037 21.037 21.037-21.037 21.037zm38.998-37.906 19.864-19.864 19.864 19.864-19.864 19.864zm38.998-37.905 18.688-18.688 18.688 18.688-18.688 18.688zm38.997-37.907 17.518-17.518 17.518 17.518-17.518 17.518zm38.999-37.907 16.345-16.345 16.345 16.345-16.345 16.345zm38.997-37.906 15.172-15.172 15.171 15.172-15.171 15.172zm38.998-37.906 13.999-13.999 13.998 13.999-13.998 13.999zm38.997-37.906 12.826-12.826 12.825 12.826-12.825 12.826zm38.998-37.907 11.652-11.652 11.653 11.652-11.653 11.652zm38.998-37.906 10.48-10.48 10.48 10.48-10.48 10.48zm38.998-37.906 9.307-9.307 9.307 9.307-9.307 9.307zm38.997-37.906 8.134-8.134 8.134 8.134-8.134 8.134zm38.998-37.906 6.96-6.96 6.962 6.96-6.961 6.96zm-818.952 716.693 31.594-31.594 31.594 31.594-31.594 31.594zm-36.651-37.906 30.421-30.421 30.421 30.421-30.42 30.421zm-36.652-37.906 29.248-29.248 29.248 29.248-29.248 29.248zm-36.652-37.907 28.075-28.075 28.075 28.075-28.075 28.075zm-36.651-37.906 26.902-26.902 26.902 26.902-26.902 26.902zm-36.652-37.906 25.729-25.729 25.729 25.729-25.73 25.729zm-36.652-37.906 24.556-24.556 24.557 24.556-24.557 24.556zm-36.651-37.907 23.383-23.383 23.382 23.383-23.382 23.383zm-36.652-37.906 22.21-22.21 22.21 22.21-22.21 22.21zm-36.652-37.906 21.037-21.037 21.037 21.037-21.037 21.037zm-36.651-37.907 19.864-19.864 19.864 19.864-19.864 19.864zm-36.652-37.906 18.691-18.691 18.69 18.691-18.69 18.691zm-36.652-37.906 17.518-17.518 17.518 17.518-17.518 17.518zm-36.651-37.906 16.345-16.345 16.345 16.345-16.345 16.345zm-36.652-37.906 15.172-15.172 15.171 15.172-15.171 15.172zm-36.652-37.906 13.999-13.999 13.998 13.999-13.998 13.999z"/>
    <path fill="#cc3589" d="m183.258 1021.873 12.826-12.826 12.825 12.826-12.825 12.826z"/>
    <path fill="#004d57" d="m146.606 983.967 11.652-11.652 11.653 11.652-11.653 11.652zm-36.652-37.906 10.48-10.48 10.48 10.48-10.48 10.48zm-36.651-37.907 9.306-9.306 9.305 9.306-9.305 9.306zm-36.652-37.906 8.133-8.133 8.132 8.133-8.132 8.133zM0 832.342l6.96-6.96 6.962 6.96-6.961 6.96zm769.684 796.031 31.594-31.594 31.594 31.594-31.594 31.594zm38.998-37.906 30.421-30.421 30.421 30.421-30.42 30.421zm38.998-37.906 29.248-29.248 29.248 29.248-29.248 29.248zm38.997-37.907 28.075-28.075 28.075 28.075-28.075 28.075zm38.998-37.906 26.902-26.902 26.902 26.902-26.902 26.902zm38.997-37.906 25.729-25.729 25.729 25.729-25.73 25.729zm38.998-37.906 24.556-24.556 24.555 24.556-24.555 24.556zm38.998-37.907 23.383-23.383 23.382 23.383-23.382 23.383zm38.998-37.906 22.206-22.206 22.206 22.206-22.206 22.206zm38.997-37.906 21.037-21.037 21.037 21.037-21.037 21.037zm38.998-37.907 19.864-19.864 19.864 19.864-19.864 19.864zm38.998-37.906 18.691-18.691 18.69 18.691-18.69 18.691zm38.997-37.906 17.518-17.518 17.518 17.518-17.518 17.518zm38.998-37.906 16.345-16.345 16.345 16.345-16.345 16.345zm38.998-37.906 15.172-15.172 15.171 15.172-15.171 15.172zm38.998-37.907 13.999-13.999 13.998 13.999-13.998 13.999zm38.997-37.906 12.826-12.826 12.825 12.826-12.825 12.826zm38.998-37.906 11.652-11.652 11.653 11.652-11.653 11.652zm38.998-37.906 10.48-10.48 10.48 10.48-10.48 10.48zm38.998-37.907 9.307-9.307 9.307 9.307-9.307 9.307zm38.997-37.906 8.134-8.134 8.134 8.134-8.134 8.134zm38.998-37.906 6.96-6.96 6.962 6.96-6.961 6.96zm774.126-800.748L2394.356 0l31.594 31.594-31.594 31.594zM2401.76 69.5l30.42-30.42 30.42 30.42-30.42 30.42zm38.997 37.906 29.244-29.244 29.243 29.244-29.243 29.244zm38.997 37.907 28.075-28.075 28.075 28.075-28.075 28.075zm38.999 37.906 26.902-26.902 26.902 26.902-26.902 26.902zm38.997 37.906 25.729-25.729 25.729 25.729-25.73 25.729zm38.998 37.906 24.556-24.556 24.555 24.556-24.555 24.556zm38.998 37.907 23.383-23.383 23.382 23.383-23.382 23.383z"/>
    <path fill="#f38331" d="m2674.743 334.844 22.207-22.207 22.207 22.207-22.207 22.207z"/>
    <path fill="#004d57" d="m2713.741 372.75 21.037-21.037 21.037 21.037-21.037 21.037zm38.998 37.906 19.864-19.864 19.864 19.864-19.864 19.864zm38.997 37.907 18.691-18.691 18.69 18.691-18.69 18.691zm38.997 37.905 17.518-17.518 17.518 17.518-17.518 17.518zm38.999 37.907 16.345-16.345 16.345 16.345-16.345 16.345zm38.997 37.906 15.172-15.172 15.171 15.172-15.171 15.172zm38.998 37.906 13.999-13.999 13.998 13.999-13.998 13.999zm38.998 37.907 12.826-12.826 12.825 12.826-12.825 12.826zM3025.723 676l11.652-11.652L3049.028 676l-11.653 11.652zm38.997 37.906 10.48-10.48 10.48 10.48-10.48 10.48zm38.998 37.906 9.307-9.307 9.307 9.307-9.307 9.307zm38.998 37.907 8.134-8.134 8.134 8.134-8.134 8.134zm38.998 37.906 6.96-6.96 6.962 6.96-6.961 6.96zM2362.762 31.594 2394.356 0l31.594 31.594-31.594 31.594zM2326.11 69.5l30.42-30.42 30.42 30.42-30.42 30.42zm-36.652 37.906 29.248-29.248 29.248 29.248-29.248 29.248zm-36.652 37.907 28.075-28.075 28.075 28.075-28.075 28.075zm-36.651 37.906 26.902-26.902 26.902 26.902-26.902 26.902zm-36.652 37.906 25.728-25.73 25.73 25.73-25.729 25.728zm-36.651 37.906 24.556-24.556 24.555 24.556-24.555 24.556zm-36.652 37.907 23.383-23.383 23.382 23.383-23.382 23.383zm-36.651 37.906 22.21-22.21 22.209 22.21-22.21 22.21zm-36.652 37.906 21.037-21.037 21.037 21.037-21.037 21.037zm-36.652 37.906 19.864-19.864 19.864 19.864-19.864 19.864zm-36.651 37.907 18.691-18.691 18.69 18.691-18.69 18.691zm-36.652 37.905 17.518-17.518 17.518 17.518-17.518 17.518zm-36.652 37.907 16.345-16.345 16.345 16.345-16.345 16.345zm-36.651 37.906 15.172-15.172 15.171 15.172-15.171 15.172zm-36.652 37.906 13.999-13.999 13.998 13.999-13.998 13.999zm-36.652 37.907 12.826-12.826 12.825 12.826-12.825 12.826zM1739.684 676l11.652-11.652L1762.99 676l-11.653 11.652zm-36.652 37.906 10.48-10.48 10.48 10.48-10.48 10.48zm-36.652 37.906 9.307-9.307 9.307 9.307-9.307 9.307zm-36.651 37.907 8.134-8.134 8.134 8.134-8.134 8.134zm-36.652 37.906 6.96-6.96 6.962 6.96-6.961 6.96zm769.684-716.693 31.594-31.594 31.594 31.594-31.594 31.594zm38.998 37.906 30.421-30.421 30.421 30.421-30.42 30.421zm38.998 37.906 29.244-29.244 29.243 29.244-29.243 29.244zm38.997 37.906 28.075-28.075 28.075 28.075-28.075 28.075zm38.999 37.907 26.902-26.902 26.902 26.902-26.902 26.902zm38.997 37.907 25.728-25.73 25.73 25.73-25.729 25.728zm38.998 37.905 24.556-24.556 24.555 24.556-24.555 24.556zm38.998 37.907 23.383-23.383 23.382 23.383-23.382 23.383zm38.997 37.906 22.207-22.207 22.207 22.207-22.207 22.207zm38.998 37.906 21.037-21.037 21.037 21.037-21.037 21.037zm38.998 37.906 19.864-19.864 19.864 19.864-19.864 19.864zm38.997 37.906 18.691-18.691 18.69 18.691-18.69 18.691zm38.997 37.906 17.518-17.518 17.518 17.518-17.518 17.518zm38.999 37.907 16.345-16.345 16.345 16.345-16.345 16.345zm38.997 37.906 15.172-15.172 15.171 15.172-15.171 15.172zm38.998 37.906 13.999-13.999 13.998 13.999-13.998 13.999zm38.998 37.906 12.826-12.826 12.825 12.826-12.825 12.826zm38.998 37.906 11.652-11.652 11.653 11.652-11.653 11.652zm38.997 37.907 10.48-10.48 10.48 10.48-10.48 10.48zm38.998 37.906 9.307-9.307 9.307 9.307-9.307 9.307zm38.998 37.906 8.134-8.134 8.134 8.134-8.134 8.134zm38.998 37.907 6.96-6.96 6.962 6.96-6.961 6.96z"/>
    <path fill="#004d57" d="m2362.761 110.932 31.594-31.594 31.594 31.594-31.594 31.594zm-36.651 37.906 30.421-30.421 30.421 30.421-30.42 30.421zm-36.652 37.906 29.248-29.248 29.248 29.248-29.248 29.248zm-36.651 37.906 28.075-28.075 28.075 28.075-28.075 28.075zm-36.652 37.907 26.902-26.902 26.902 26.902-26.902 26.902zm-36.652 37.906 25.729-25.729 25.729 25.729-25.73 25.729zm-36.651 37.906 24.556-24.556 24.555 24.556-24.555 24.556zm-36.652 37.907 23.383-23.383 23.382 23.383-23.382 23.383zm-36.651 37.906 22.21-22.21 22.209 22.21-22.21 22.21zm-36.652 37.906 21.037-21.037 21.037 21.037-21.037 21.037zm-36.652 37.906 19.864-19.864 19.864 19.864-19.864 19.864z"/>
    <path fill="#f38331" d="m1959.594 527.9 18.691-18.691 18.69 18.691-18.69 18.691z"/>
    <path fill="#004d57" d="m1922.942 565.806 17.518-17.518 17.518 17.518-17.518 17.518zm-36.652 37.907 16.345-16.345 16.345 16.345-16.345 16.345zm-36.651 37.906 15.172-15.172 15.171 15.172-15.171 15.172zm-36.652 37.906 13.999-13.999 13.998 13.999-13.998 13.999zm-36.652 37.907 12.826-12.826 12.825 12.826-12.825 12.826zm-36.651 37.906 11.652-11.652 11.653 11.652-11.653 11.652zm-36.652 37.906 10.48-10.48 10.48 10.48-10.48 10.48zm-36.652 37.906 9.307-9.307 9.307 9.307-9.307 9.307zm-36.651 37.907 8.134-8.134 8.134 8.134-8.134 8.134zm-36.652 37.905 6.96-6.96 6.962 6.96-6.961 6.96zm769.684-716.693 31.594-31.594 31.594 31.594-31.594 31.594zm38.998 37.907 30.421-30.421 30.421 30.421-30.42 30.421zm38.998 37.905 29.244-29.244 29.243 29.244-29.243 29.244zm38.997 37.907 28.075-28.075 28.075 28.075-28.075 28.075zm38.998 37.906 26.902-26.902 26.902 26.902-26.902 26.902zm38.998 37.906 25.729-25.729 25.729 25.729-25.73 25.729zm38.998 37.907 24.556-24.556 24.555 24.556-24.555 24.556zm38.998 37.906 23.383-23.383 23.382 23.383-23.382 23.383zm38.997 37.906 22.21-22.21 22.21 22.21-22.21 22.21zm38.998 37.907 21.037-21.037 21.037 21.037-21.037 21.037zm38.998 37.906 19.864-19.864 19.864 19.864-19.864 19.864zm38.997 37.906 18.691-18.691 18.69 18.691-18.69 18.691zm38.997 37.906 17.518-17.518 17.518 17.518-17.518 17.518zm38.999 37.907 16.345-16.345 16.345 16.345-16.345 16.345zm38.997 37.906 15.172-15.172 15.171 15.172-15.171 15.172zm38.998 37.906 14-14 13.999 14-14 14zm38.998 37.906 12.826-12.826 12.825 12.826-12.825 12.826zm38.998 37.906 11.652-11.652 11.653 11.652-11.653 11.652zm38.997 37.906 10.48-10.48 10.48 10.48-10.48 10.48zm38.998 37.907 9.307-9.307 9.307 9.307-9.307 9.307zm38.998 37.906 8.134-8.134 8.134 8.134-8.134 8.134zm38.998 37.906 6.96-6.96 6.962 6.96-6.961 6.96z"/>
    <path fill="#004d57" d="m2362.761 190.269 31.594-31.594 31.594 31.594-31.594 31.594zm-36.651 37.907 30.421-30.421 30.421 30.421-30.42 30.421zm-36.652 37.906 29.248-29.248 29.248 29.248-29.248 29.248zm-36.652 37.906 28.075-28.075 28.075 28.075-28.075 28.075zm-36.651 37.906 26.902-26.902 26.902 26.902-26.902 26.902zm-36.652 37.907 25.728-25.73 25.73 25.73-25.729 25.728zm-36.651 37.906 24.556-24.556 24.555 24.556-24.555 24.556zm-36.652 37.906 23.383-23.383 23.382 23.383-23.382 23.383zm-36.651 37.907 22.206-22.206 22.206 22.206-22.206 22.206zm-36.652 37.906 21.037-21.037 21.037 21.037-21.037 21.037zm-36.652 37.906 19.864-19.864 19.864 19.864-19.864 19.864zm-36.651 37.906 18.691-18.691 18.69 18.691-18.69 18.691zm-36.652 37.906 17.518-17.518 17.518 17.518-17.518 17.518zm-36.652 37.907 16.345-16.345 16.345 16.345-16.345 16.345zm-36.651 37.906 15.172-15.172 15.171 15.172-15.171 15.172zm-36.652 37.906 14-14 13.999 14-14 14zm-36.652 37.906 12.826-12.826 12.825 12.826-12.825 12.826zm-36.651 37.907 11.652-11.652 11.653 11.652-11.653 11.652zm-36.652 37.905 10.48-10.48 10.48 10.48-10.48 10.48zm-36.652 37.907 9.307-9.307 9.307 9.307-9.307 9.307zm-36.651 37.906 8.134-8.134 8.134 8.134-8.134 8.134zm-36.652 37.906 6.96-6.96 6.962 6.96-6.961 6.96zm769.684-716.693 31.594-31.594 31.594 31.594-31.594 31.594zm38.998 37.906 30.421-30.421 30.421 30.421-30.42 30.421zm38.998 37.906 29.244-29.244 29.243 29.244-29.243 29.244zm38.997 37.907 28.075-28.075 28.075 28.075-28.075 28.075zm38.999 37.906 26.902-26.902 26.902 26.902-26.902 26.902zm38.997 37.907 25.728-25.73 25.73 25.73-25.729 25.728zm38.998 37.905 24.556-24.556 24.555 24.556-24.555 24.556zm38.998 37.907 23.383-23.383 23.382 23.383-23.382 23.383zm38.997 37.906 22.21-22.21 22.21 22.21-22.21 22.21zm38.998 37.906 21.037-21.037 21.037 21.037-21.037 21.037zm38.998 37.907 19.864-19.864 19.864 19.864-19.864 19.864zm38.997 37.905 18.688-18.688 18.688 18.688-18.688 18.688zm38.997 37.907 17.518-17.518 17.518 17.518L2848.25 742zm38.999 37.906 16.345-16.345 16.345 16.345-16.345 16.345zm38.997 37.906 15.172-15.172 15.171 15.172-15.171 15.172zm38.998 37.907 13.999-13.999 13.998 13.999-13.998 13.999zm38.998 37.906 12.826-12.826 12.825 12.826-12.825 12.826zm38.998 37.906 11.652-11.652 11.653 11.652-11.653 11.652zm38.997 37.906 10.48-10.48 10.48 10.48-10.48 10.48zm38.998 37.906 9.307-9.307 9.307 9.307-9.307 9.307zm38.998 37.907 8.134-8.134 8.134 8.134-8.134 8.134zm38.998 37.906 6.96-6.96 6.962 6.96-6.961 6.96z"/>
    <path fill="#004d57" d="m2362.761 269.607 31.594-31.594 31.594 31.594-31.594 31.594zm-36.651 37.906 30.421-30.421 30.421 30.421-30.42 30.421zm-36.652 37.907 29.248-29.248 29.248 29.248-29.248 29.248zm-36.652 37.906 28.075-28.075 28.075 28.075-28.075 28.075zm-36.651 37.906 26.902-26.902 26.902 26.902-26.902 26.902zm-36.652 37.907 25.729-25.729 25.729 25.729-25.73 25.729zm-36.651 37.905 24.556-24.556 24.555 24.556-24.555 24.556zm-36.652 37.907 23.383-23.383 23.382 23.383-23.382 23.383zm-36.651 37.906 22.206-22.206 22.206 22.206-22.206 22.206zm-36.652 37.906 21.037-21.037 21.037 21.037-21.037 21.037zm-36.652 37.907 19.864-19.864 19.864 19.864-19.864 19.864zm-36.651 37.906 18.688-18.688 18.688 18.688-18.688 18.688zm-36.652 37.906 17.518-17.518 17.518 17.518L1940.46 742zm-36.652 37.906 16.345-16.345 16.345 16.345-16.345 16.345zm-36.651 37.906 15.172-15.172 15.171 15.172-15.171 15.172zm-36.652 37.907 13.999-13.999 13.998 13.999-13.998 13.999zm-36.652 37.906 12.826-12.826 12.825 12.826-12.825 12.826zm-36.651 37.906 11.652-11.652 11.653 11.652-11.653 11.652zm-36.652 37.906 10.48-10.48 10.48 10.48-10.48 10.48zm-36.652 37.907 9.307-9.307 9.307 9.307-9.307 9.307zm-36.651 37.906 8.134-8.134 8.134 8.134-8.134 8.134zm-36.652 37.906 6.96-6.96 6.962 6.96-6.961 6.96zm769.684-716.693 31.594-31.594 31.594 31.594-31.594 31.594zm38.998 37.906 30.421-30.421 30.421 30.421-30.42 30.421zm38.998 37.906 29.244-29.244 29.243 29.244-29.243 29.244zm38.997 37.907 28.075-28.075 28.075 28.075-28.075 28.075z"/>
    <path fill="#cc3589" d="m2518.753 500.57 26.902-26.902 26.902 26.902-26.902 26.902z"/>
    <path fill="#004d57" d="m2557.75 538.476 25.729-25.729 25.729 25.729-25.73 25.729zm38.998 37.906 24.556-24.556 24.555 24.556-24.555 24.556zm38.998 37.907 23.383-23.383 23.382 23.383-23.382 23.383zm38.997 37.906 22.207-22.207 22.207 22.207-22.207 22.207zm38.998 37.906 21.037-21.037 21.037 21.037-21.037 21.037zm38.998 37.906 19.864-19.864 19.864 19.864-19.864 19.864zm38.997 37.907 18.691-18.691 18.69 18.691-18.69 18.691zm38.997 37.906 17.518-17.518 17.518 17.518-17.518 17.518zm38.999 37.906 16.345-16.345 16.345 16.345-16.345 16.345zm38.997 37.906 15.172-15.172 15.171 15.172-15.171 15.172zm38.998 37.906 13.999-13.999 13.998 13.999-13.998 13.999zm38.998 37.907 12.826-12.826 12.825 12.826-12.825 12.826zm38.998 37.906 11.652-11.652 11.653 11.652-11.653 11.652zm38.997 37.906 10.48-10.48 10.48 10.48-10.48 10.48zm38.998 37.906 9.307-9.307 9.307 9.307-9.307 9.307zm38.998 37.907 8.134-8.134 8.134 8.134-8.134 8.134zm38.998 37.906 6.96-6.961 6.962 6.96-6.96 6.961zm-818.953-796.031 31.594-31.594 31.594 31.594-31.594 31.594zm-36.651 37.906 30.421-30.421 30.421 30.421-30.42 30.421zm-36.652 37.907 29.248-29.248 29.248 29.248-29.248 29.248zm-36.651 37.906 28.075-28.075 28.075 28.075-28.075 28.075zm-36.652 37.906 26.902-26.902 26.902 26.902-26.902 26.902zm-36.652 37.907 25.728-25.73 25.73 25.73-25.729 25.728zm-36.651 37.905 24.556-24.556 24.555 24.556-24.555 24.556zm-36.652 37.907 23.383-23.383 23.382 23.383-23.382 23.383zm-36.651 37.906 22.21-22.21 22.209 22.21-22.21 22.21zm-36.652 37.906 21.037-21.037 21.037 21.037-21.037 21.037zm-36.652 37.906 19.864-19.864 19.864 19.864-19.864 19.864zm-36.651 37.907 18.691-18.691 18.69 18.691-18.69 18.691zm-36.652 37.906 17.518-17.518 17.518 17.518-17.518 17.518zm-36.652 37.906 16.345-16.345 16.345 16.345-16.345 16.345zm-36.651 37.906 15.172-15.172 15.171 15.172-15.171 15.172zm-36.652 37.906 13.999-13.999 13.998 13.999-13.998 13.999zm-36.652 37.907 12.826-12.826 12.825 12.826-12.825 12.826zm-36.651 37.906 11.652-11.652 11.653 11.652-11.653 11.652zm-36.652 37.906 10.48-10.48 10.48 10.48-10.48 10.48zm-36.652 37.906 9.307-9.307 9.307 9.307-9.307 9.307zm-36.651 37.907 8.134-8.134 8.134 8.134-8.134 8.134zm-36.652 37.906 6.96-6.96 6.962 6.96-6.961 6.96zm769.684-716.693 31.594-31.594 31.594 31.594-31.594 31.594zm38.998 37.906 30.421-30.421 30.421 30.421-30.42 30.421zm38.998 37.906 29.244-29.244 29.243 29.244-29.243 29.244zm38.997 37.907 28.075-28.075 28.075 28.075-28.075 28.075zm38.998 37.906 26.902-26.902 26.902 26.902-26.902 26.902zm38.998 37.907 25.728-25.73 25.73 25.73-25.729 25.728zm38.998 37.905 24.556-24.556 24.555 24.556-24.555 24.556zm38.998 37.907 23.383-23.383 23.382 23.383-23.382 23.383zm38.997 37.906 22.207-22.207 22.207 22.207-22.207 22.207zm38.998 37.906 21.037-21.037 21.037 21.037-21.037 21.037zm38.998 37.906 19.864-19.864 19.864 19.864-19.864 19.864zm38.997 37.906 18.691-18.691 18.69 18.691-18.69 18.691zm38.997 37.906 17.518-17.518 17.518 17.518-17.518 17.518zm38.999 37.907 16.345-16.345 16.345 16.345-16.345 16.345zm38.997 37.906 15.172-15.172 15.171 15.172-15.171 15.172zm38.998 37.906 13.999-13.999 13.998 13.999-13.998 13.999zm38.998 37.907 12.826-12.826 12.825 12.826-12.825 12.826zm38.998 37.906 11.652-11.652 11.653 11.652-11.653 11.652zm38.997 37.906 10.48-10.48 10.48 10.48-10.48 10.48zm38.998 37.906 9.307-9.307 9.307 9.307-9.307 9.307zm38.998 37.906 8.134-8.134 8.134 8.134-8.134 8.134zm38.998 37.906 6.96-6.96 6.962 6.96-6.961 6.96z"/>
    <path fill="#004d57" d="m2362.761 428.283 31.594-31.594 31.594 31.594-31.594 31.594zm-36.651 37.906 30.421-30.421 30.421 30.421-30.42 30.421zm-36.652 37.906 29.248-29.248 29.248 29.248-29.248 29.248zm-36.652 37.907 28.075-28.075 28.075 28.075-28.075 28.075zm-36.651 37.906 26.902-26.902 26.902 26.902-26.902 26.902zm-36.652 37.906 25.729-25.729 25.729 25.729-25.73 25.729zm-36.651 37.906 24.556-24.556 24.555 24.556-24.555 24.556zm-36.652 37.907 23.383-23.383 23.382 23.383-23.382 23.383zm-36.651 37.906 22.21-22.21 22.209 22.21-22.21 22.21zm-36.652 37.906 21.037-21.037 21.037 21.037-21.037 21.037zm-36.652 37.906 19.864-19.864 19.864 19.864-19.864 19.864zm-36.651 37.906 18.691-18.691 18.69 18.691-18.69 18.691zm-36.652 37.906 17.518-17.518 17.518 17.518-17.518 17.518zm-36.652 37.907 16.345-16.345 16.345 16.345-16.345 16.345zm-36.651 37.906 15.172-15.172 15.171 15.172-15.171 15.172zm-36.652 37.906 13.999-13.999 13.998 13.999-13.998 13.999zm-36.652 37.907 12.826-12.826 12.825 12.826-12.825 12.826zm-36.651 37.906 11.652-11.652 11.653 11.652-11.653 11.652zm-36.652 37.906 10.48-10.48 10.48 10.48-10.48 10.48zm-36.652 37.906 9.307-9.307 9.307 9.307-9.307 9.307zm-36.651 37.906 8.134-8.134 8.134 8.134-8.134 8.134zm-36.652 37.906 6.96-6.96 6.962 6.96-6.961 6.96zm769.684-716.693 31.594-31.594 31.594 31.594-31.594 31.594zm38.998 37.907 30.421-30.421 30.421 30.421-30.42 30.421zm38.998 37.905 29.244-29.244 29.243 29.244-29.243 29.244zm38.997 37.907 28.075-28.075 28.075 28.075-28.075 28.075zm38.999 37.907 26.902-26.902 26.902 26.902-26.902 26.902zm38.997 37.906 25.729-25.729 25.729 25.729-25.73 25.729zm38.998 37.906 24.556-24.556 24.555 24.556-24.555 24.556zm38.998 37.906 23.383-23.383 23.382 23.383-23.382 23.383zm38.997 37.907 22.207-22.207 22.207 22.207-22.207 22.207zm38.998 37.905 21.037-21.037 21.037 21.037-21.037 21.037zm38.998 37.907 19.864-19.864 19.864 19.864-19.864 19.864zm38.997 37.906 18.691-18.691 18.69 18.691-18.69 18.691zm38.997 37.906 17.518-17.518 17.518 17.518-17.518 17.518zm38.999 37.906 16.345-16.345 16.345 16.345-16.345 16.345zm38.997 37.907 15.172-15.172 15.171 15.172-15.171 15.172zm38.998 37.906 13.999-13.999 13.998 13.999-13.998 13.999zm38.998 37.906 12.826-12.826 12.825 12.826-12.825 12.826zm38.998 37.906 11.65-11.65 11.651 11.65-11.65 11.65zm38.997 37.907 10.478-10.478 10.479 10.478-10.479 10.478zm38.998 37.906 9.307-9.307 9.307 9.307-9.307 9.307zm38.998 37.906 8.134-8.134 8.134 8.134-8.134 8.134zm38.998 37.907 6.96-6.96 6.962 6.96-6.961 6.96z"/>
    <path fill="#004d57" d="m2362.761 507.62 31.594-31.594 31.594 31.594-31.594 31.594zm-36.651 37.907 30.421-30.421 30.421 30.421-30.42 30.421zm-36.652 37.906 29.248-29.248 29.248 29.248-29.248 29.248zm-36.652 37.906 28.075-28.075 28.075 28.075-28.075 28.075zm-36.651 37.907 26.902-26.902 26.902 26.902-26.902 26.902zm-36.652 37.906 25.728-25.73 25.73 25.73-25.729 25.728zm-36.651 37.906 24.556-24.556 24.555 24.556-24.555 24.556zm-36.652 37.906 23.383-23.383 23.382 23.383-23.382 23.383zm-36.651 37.907 22.21-22.21 22.209 22.21-22.21 22.21zm-36.652 37.905 21.037-21.037 21.037 21.037-21.037 21.037zm-36.652 37.907 19.864-19.864 19.864 19.864-19.864 19.864zm-36.651 37.906 18.691-18.691 18.69 18.691-18.69 18.691zm-36.652 37.906 17.518-17.518 17.518 17.518-17.518 17.518zm-36.652 37.906 16.345-16.345 16.345 16.345-16.345 16.345zm-36.651 37.907 15.172-15.172 15.171 15.172-15.171 15.172zm-36.652 37.906 13.999-13.999 13.998 13.999-13.998 13.999zm-36.652 37.906 12.826-12.826 12.825 12.826-12.825 12.826zm-36.651 37.907 11.65-11.65 11.651 11.65-11.65 11.65zm-36.652 37.906 10.478-10.478 10.479 10.478-10.479 10.478zm-36.652 37.906 9.307-9.307 9.307 9.307-9.307 9.307zm-36.651 37.906 8.134-8.134 8.134 8.134-8.134 8.134zm-36.652 37.906 6.96-6.96 6.962 6.96-6.961 6.96z"/>
  </g>
</svg>